<mxfile host="app.diagrams.net" modified="2023-03-29T17:26:29.454Z" agent="Mozilla/5.0 (Windows NT 10.0; Win64; x64) AppleWebKit/537.36 (KHTML, like Gecko) Chrome/111.0.0.0 Safari/537.36" etag="K8IXQrp1l4nA-_RPnBpp" version="21.1.1" type="device">
  <diagram name="Page-1" id="2YBvvXClWsGukQMizWep">
    <mxGraphModel dx="1725" dy="478" grid="1" gridSize="10" guides="1" tooltips="1" connect="1" arrows="1" fold="1" page="1" pageScale="1" pageWidth="850" pageHeight="1100" math="0" shadow="0">
      <root>
        <mxCell id="0" />
        <mxCell id="1" parent="0" />
        <mxCell id="aM9ryv3xv72pqoxQDRHE-1" value="Appointment" style="shape=umlLifeline;perimeter=lifelinePerimeter;whiteSpace=wrap;html=1;container=0;dropTarget=0;collapsible=0;recursiveResize=0;outlineConnect=0;portConstraint=eastwest;newEdgeStyle={&quot;edgeStyle&quot;:&quot;elbowEdgeStyle&quot;,&quot;elbow&quot;:&quot;vertical&quot;,&quot;curved&quot;:0,&quot;rounded&quot;:0};" parent="1" vertex="1">
          <mxGeometry x="80" y="40" width="100" height="850" as="geometry" />
        </mxCell>
        <mxCell id="0-Ukn4ihmsJS-yES5DAv-44" style="edgeStyle=elbowEdgeStyle;rounded=0;orthogonalLoop=1;jettySize=auto;html=1;elbow=vertical;curved=0;dashed=1;dashPattern=12 12;" edge="1" parent="aM9ryv3xv72pqoxQDRHE-1">
          <mxGeometry relative="1" as="geometry">
            <mxPoint x="-140" y="350" as="targetPoint" />
            <mxPoint x="45" y="350.33333333333337" as="sourcePoint" />
          </mxGeometry>
        </mxCell>
        <mxCell id="0-Ukn4ihmsJS-yES5DAv-46" value="Suggest other Dr" style="edgeLabel;html=1;align=center;verticalAlign=middle;resizable=0;points=[];" vertex="1" connectable="0" parent="0-Ukn4ihmsJS-yES5DAv-44">
          <mxGeometry x="0.1295" y="-4" relative="1" as="geometry">
            <mxPoint as="offset" />
          </mxGeometry>
        </mxCell>
        <mxCell id="aM9ryv3xv72pqoxQDRHE-2" value="" style="html=1;points=[];perimeter=orthogonalPerimeter;outlineConnect=0;targetShapes=umlLifeline;portConstraint=eastwest;newEdgeStyle={&quot;edgeStyle&quot;:&quot;elbowEdgeStyle&quot;,&quot;elbow&quot;:&quot;vertical&quot;,&quot;curved&quot;:0,&quot;rounded&quot;:0};" parent="aM9ryv3xv72pqoxQDRHE-1" vertex="1">
          <mxGeometry x="45" y="70" width="10" height="460" as="geometry" />
        </mxCell>
        <mxCell id="aM9ryv3xv72pqoxQDRHE-3" value="request appoitnment with Dr" style="html=1;verticalAlign=bottom;startArrow=oval;endArrow=block;startSize=8;edgeStyle=elbowEdgeStyle;elbow=vertical;curved=0;rounded=0;" parent="aM9ryv3xv72pqoxQDRHE-1" target="aM9ryv3xv72pqoxQDRHE-2" edge="1">
          <mxGeometry x="-0.1602" relative="1" as="geometry">
            <mxPoint x="-15" y="70" as="sourcePoint" />
            <mxPoint as="offset" />
          </mxGeometry>
        </mxCell>
        <mxCell id="0-Ukn4ihmsJS-yES5DAv-16" style="edgeStyle=elbowEdgeStyle;rounded=0;orthogonalLoop=1;jettySize=auto;html=1;elbow=vertical;curved=0;dashed=1;dashPattern=12 12;" edge="1" parent="aM9ryv3xv72pqoxQDRHE-1" source="aM9ryv3xv72pqoxQDRHE-2">
          <mxGeometry relative="1" as="geometry">
            <mxPoint x="-140" y="150" as="targetPoint" />
            <mxPoint x="30" y="150" as="sourcePoint" />
            <Array as="points">
              <mxPoint x="-40" y="150" />
              <mxPoint x="-40" y="150" />
            </Array>
          </mxGeometry>
        </mxCell>
        <mxCell id="aM9ryv3xv72pqoxQDRHE-5" value="Doctor" style="shape=umlLifeline;perimeter=lifelinePerimeter;whiteSpace=wrap;html=1;container=0;dropTarget=0;collapsible=0;recursiveResize=0;outlineConnect=0;portConstraint=eastwest;newEdgeStyle={&quot;edgeStyle&quot;:&quot;elbowEdgeStyle&quot;,&quot;elbow&quot;:&quot;vertical&quot;,&quot;curved&quot;:0,&quot;rounded&quot;:0};" parent="1" vertex="1">
          <mxGeometry x="390" y="40" width="100" height="1150" as="geometry" />
        </mxCell>
        <mxCell id="aM9ryv3xv72pqoxQDRHE-6" value="" style="html=1;points=[];perimeter=orthogonalPerimeter;outlineConnect=0;targetShapes=umlLifeline;portConstraint=eastwest;newEdgeStyle={&quot;edgeStyle&quot;:&quot;elbowEdgeStyle&quot;,&quot;elbow&quot;:&quot;vertical&quot;,&quot;curved&quot;:0,&quot;rounded&quot;:0};" parent="aM9ryv3xv72pqoxQDRHE-5" vertex="1">
          <mxGeometry x="45" y="80" width="10" height="810" as="geometry" />
        </mxCell>
        <mxCell id="aM9ryv3xv72pqoxQDRHE-7" value="check availability(Doctor)" style="html=1;verticalAlign=bottom;endArrow=block;edgeStyle=elbowEdgeStyle;elbow=vertical;curved=0;rounded=0;" parent="1" source="aM9ryv3xv72pqoxQDRHE-2" target="aM9ryv3xv72pqoxQDRHE-6" edge="1">
          <mxGeometry relative="1" as="geometry">
            <mxPoint x="195" y="130" as="sourcePoint" />
            <Array as="points">
              <mxPoint x="180" y="120" />
            </Array>
          </mxGeometry>
        </mxCell>
        <mxCell id="aM9ryv3xv72pqoxQDRHE-10" value="Save appointment in schedule" style="html=1;verticalAlign=bottom;endArrow=open;endSize=8;edgeStyle=elbowEdgeStyle;elbow=vertical;curved=0;rounded=0;" parent="1" edge="1">
          <mxGeometry relative="1" as="geometry">
            <mxPoint x="435" y="272" as="targetPoint" />
            <Array as="points">
              <mxPoint x="180" y="272" />
            </Array>
            <mxPoint x="135" y="272" as="sourcePoint" />
          </mxGeometry>
        </mxCell>
        <mxCell id="0-Ukn4ihmsJS-yES5DAv-10" style="edgeStyle=orthogonalEdgeStyle;rounded=0;orthogonalLoop=1;jettySize=auto;html=1;dashed=1;endArrow=none;endFill=0;" edge="1" parent="1" source="0-Ukn4ihmsJS-yES5DAv-55">
          <mxGeometry relative="1" as="geometry">
            <mxPoint x="-65" y="1220" as="targetPoint" />
            <Array as="points">
              <mxPoint x="-65" y="510" />
              <mxPoint x="-65" y="510" />
            </Array>
          </mxGeometry>
        </mxCell>
        <mxCell id="0-Ukn4ihmsJS-yES5DAv-5" value="Patient" style="shape=umlActor;verticalLabelPosition=bottom;verticalAlign=top;html=1;outlineConnect=0;" vertex="1" parent="1">
          <mxGeometry x="-80" y="40" width="30" height="60" as="geometry" />
        </mxCell>
        <mxCell id="0-Ukn4ihmsJS-yES5DAv-14" value="alt" style="shape=umlFrame;whiteSpace=wrap;html=1;pointerEvents=0;" vertex="1" parent="1">
          <mxGeometry x="-200" y="130" width="660" height="300" as="geometry" />
        </mxCell>
        <mxCell id="0-Ukn4ihmsJS-yES5DAv-22" value="&lt;font style=&quot;font-size: 11px;&quot;&gt;[If available Doctor]&lt;/font&gt;" style="text;html=1;align=center;verticalAlign=middle;resizable=0;points=[];autosize=1;strokeColor=none;fillColor=none;" vertex="1" parent="1">
          <mxGeometry x="-195" y="170" width="120" height="30" as="geometry" />
        </mxCell>
        <mxCell id="0-Ukn4ihmsJS-yES5DAv-24" value="" style="endArrow=none;dashed=1;html=1;rounded=0;exitX=0.002;exitY=0.552;exitDx=0;exitDy=0;exitPerimeter=0;entryX=1.006;entryY=0.542;entryDx=0;entryDy=0;entryPerimeter=0;strokeWidth=2;" edge="1" parent="1">
          <mxGeometry width="50" height="50" relative="1" as="geometry">
            <mxPoint x="-198.67999999999984" y="324.84000000000003" as="sourcePoint" />
            <mxPoint x="463.96000000000004" y="320.6400000000001" as="targetPoint" />
          </mxGeometry>
        </mxCell>
        <mxCell id="0-Ukn4ihmsJS-yES5DAv-25" value="" style="endArrow=none;html=1;rounded=0;dashed=1;dashPattern=12 12;" edge="1" parent="1" source="aM9ryv3xv72pqoxQDRHE-2">
          <mxGeometry width="50" height="50" relative="1" as="geometry">
            <mxPoint x="140" y="171" as="sourcePoint" />
            <mxPoint x="435" y="171" as="targetPoint" />
          </mxGeometry>
        </mxCell>
        <mxCell id="0-Ukn4ihmsJS-yES5DAv-27" value="Return availabillity()" style="edgeLabel;html=1;align=center;verticalAlign=middle;resizable=0;points=[];" vertex="1" connectable="0" parent="0-Ukn4ihmsJS-yES5DAv-25">
          <mxGeometry x="-0.0994" y="4" relative="1" as="geometry">
            <mxPoint as="offset" />
          </mxGeometry>
        </mxCell>
        <mxCell id="0-Ukn4ihmsJS-yES5DAv-35" value="" style="endArrow=classic;html=1;rounded=0;dashed=1;dashPattern=12 12;" edge="1" parent="1" source="aM9ryv3xv72pqoxQDRHE-2">
          <mxGeometry width="50" height="50" relative="1" as="geometry">
            <mxPoint x="210" y="340" as="sourcePoint" />
            <mxPoint x="-60" y="240" as="targetPoint" />
          </mxGeometry>
        </mxCell>
        <mxCell id="0-Ukn4ihmsJS-yES5DAv-36" value="Notify Patient" style="edgeLabel;html=1;align=center;verticalAlign=middle;resizable=0;points=[];" vertex="1" connectable="0" parent="0-Ukn4ihmsJS-yES5DAv-35">
          <mxGeometry x="-0.1658" relative="1" as="geometry">
            <mxPoint y="-8" as="offset" />
          </mxGeometry>
        </mxCell>
        <mxCell id="0-Ukn4ihmsJS-yES5DAv-37" value="else" style="text;html=1;align=center;verticalAlign=middle;resizable=0;points=[];autosize=1;strokeColor=none;fillColor=none;" vertex="1" parent="1">
          <mxGeometry x="-185" y="329" width="50" height="30" as="geometry" />
        </mxCell>
        <mxCell id="0-Ukn4ihmsJS-yES5DAv-39" style="edgeStyle=elbowEdgeStyle;rounded=0;orthogonalLoop=1;jettySize=auto;html=1;elbow=vertical;curved=0;dashed=1;dashPattern=12 12;" edge="1" parent="1" target="aM9ryv3xv72pqoxQDRHE-2">
          <mxGeometry relative="1" as="geometry">
            <mxPoint x="435" y="371.33333333333337" as="sourcePoint" />
            <mxPoint x="135" y="371.33333333333337" as="targetPoint" />
            <Array as="points">
              <mxPoint x="280" y="370" />
            </Array>
          </mxGeometry>
        </mxCell>
        <mxCell id="0-Ukn4ihmsJS-yES5DAv-43" value="Unavailable Today" style="edgeLabel;html=1;align=center;verticalAlign=middle;resizable=0;points=[];" vertex="1" connectable="0" parent="0-Ukn4ihmsJS-yES5DAv-39">
          <mxGeometry x="0.0914" y="-1" relative="1" as="geometry">
            <mxPoint as="offset" />
          </mxGeometry>
        </mxCell>
        <mxCell id="0-Ukn4ihmsJS-yES5DAv-47" value="Appointment" style="shape=umlLifeline;perimeter=lifelinePerimeter;whiteSpace=wrap;html=1;container=0;dropTarget=0;collapsible=0;recursiveResize=0;outlineConnect=0;portConstraint=eastwest;newEdgeStyle={&quot;edgeStyle&quot;:&quot;elbowEdgeStyle&quot;,&quot;elbow&quot;:&quot;vertical&quot;,&quot;curved&quot;:0,&quot;rounded&quot;:0};" vertex="1" parent="1">
          <mxGeometry x="80" y="40" width="100" height="1150" as="geometry" />
        </mxCell>
        <mxCell id="0-Ukn4ihmsJS-yES5DAv-48" style="edgeStyle=elbowEdgeStyle;rounded=0;orthogonalLoop=1;jettySize=auto;html=1;elbow=vertical;curved=0;dashed=1;dashPattern=12 12;" edge="1" parent="0-Ukn4ihmsJS-yES5DAv-47">
          <mxGeometry relative="1" as="geometry">
            <mxPoint x="-140" y="350" as="targetPoint" />
            <mxPoint x="45" y="350.33333333333337" as="sourcePoint" />
          </mxGeometry>
        </mxCell>
        <mxCell id="0-Ukn4ihmsJS-yES5DAv-49" value="Suggest other Dr" style="edgeLabel;html=1;align=center;verticalAlign=middle;resizable=0;points=[];" vertex="1" connectable="0" parent="0-Ukn4ihmsJS-yES5DAv-48">
          <mxGeometry x="0.1295" y="-4" relative="1" as="geometry">
            <mxPoint as="offset" />
          </mxGeometry>
        </mxCell>
        <mxCell id="0-Ukn4ihmsJS-yES5DAv-50" value="" style="html=1;points=[];perimeter=orthogonalPerimeter;outlineConnect=0;targetShapes=umlLifeline;portConstraint=eastwest;newEdgeStyle={&quot;edgeStyle&quot;:&quot;elbowEdgeStyle&quot;,&quot;elbow&quot;:&quot;vertical&quot;,&quot;curved&quot;:0,&quot;rounded&quot;:0};" vertex="1" parent="0-Ukn4ihmsJS-yES5DAv-47">
          <mxGeometry x="45" y="70" width="10" height="720" as="geometry" />
        </mxCell>
        <mxCell id="0-Ukn4ihmsJS-yES5DAv-51" value="request appoitnment with Dr" style="html=1;verticalAlign=bottom;startArrow=oval;endArrow=block;startSize=8;edgeStyle=elbowEdgeStyle;elbow=vertical;curved=0;rounded=0;" edge="1" parent="0-Ukn4ihmsJS-yES5DAv-47" target="0-Ukn4ihmsJS-yES5DAv-50">
          <mxGeometry x="-0.1602" relative="1" as="geometry">
            <mxPoint x="-15" y="70" as="sourcePoint" />
            <mxPoint as="offset" />
          </mxGeometry>
        </mxCell>
        <mxCell id="0-Ukn4ihmsJS-yES5DAv-57" style="edgeStyle=elbowEdgeStyle;rounded=0;orthogonalLoop=1;jettySize=auto;html=1;elbow=vertical;curved=0;" edge="1" parent="1">
          <mxGeometry relative="1" as="geometry">
            <mxPoint x="-60" y="491.33333333333337" as="sourcePoint" />
            <mxPoint x="439.5" y="491.33333333333337" as="targetPoint" />
          </mxGeometry>
        </mxCell>
        <mxCell id="0-Ukn4ihmsJS-yES5DAv-58" value="Checkup with Dr" style="edgeLabel;html=1;align=center;verticalAlign=middle;resizable=0;points=[];" vertex="1" connectable="0" parent="0-Ukn4ihmsJS-yES5DAv-57">
          <mxGeometry x="-0.0644" y="1" relative="1" as="geometry">
            <mxPoint as="offset" />
          </mxGeometry>
        </mxCell>
        <mxCell id="0-Ukn4ihmsJS-yES5DAv-64" style="edgeStyle=elbowEdgeStyle;rounded=0;orthogonalLoop=1;jettySize=auto;html=1;elbow=vertical;curved=0;" edge="1" parent="1">
          <mxGeometry relative="1" as="geometry">
            <mxPoint x="-60" y="446.33333333333337" as="sourcePoint" />
            <mxPoint x="619.5" y="446.33333333333337" as="targetPoint" />
          </mxGeometry>
        </mxCell>
        <mxCell id="0-Ukn4ihmsJS-yES5DAv-65" value="Upload Medical Results()" style="edgeLabel;html=1;align=center;verticalAlign=middle;resizable=0;points=[];" vertex="1" connectable="0" parent="0-Ukn4ihmsJS-yES5DAv-64">
          <mxGeometry x="-0.0645" y="2" relative="1" as="geometry">
            <mxPoint as="offset" />
          </mxGeometry>
        </mxCell>
        <mxCell id="0-Ukn4ihmsJS-yES5DAv-89" style="edgeStyle=elbowEdgeStyle;rounded=0;orthogonalLoop=1;jettySize=auto;html=1;elbow=vertical;curved=0;" edge="1" parent="1" source="0-Ukn4ihmsJS-yES5DAv-55" target="0-Ukn4ihmsJS-yES5DAv-50">
          <mxGeometry relative="1" as="geometry">
            <Array as="points">
              <mxPoint x="40" y="800" />
            </Array>
          </mxGeometry>
        </mxCell>
        <mxCell id="0-Ukn4ihmsJS-yES5DAv-90" value="Schedule Next Appointment" style="edgeLabel;html=1;align=center;verticalAlign=middle;resizable=0;points=[];" vertex="1" connectable="0" parent="0-Ukn4ihmsJS-yES5DAv-89">
          <mxGeometry x="-0.2811" y="-2" relative="1" as="geometry">
            <mxPoint x="23" as="offset" />
          </mxGeometry>
        </mxCell>
        <mxCell id="0-Ukn4ihmsJS-yES5DAv-99" style="edgeStyle=elbowEdgeStyle;rounded=0;orthogonalLoop=1;jettySize=auto;html=1;elbow=vertical;curved=0;" edge="1" parent="1" source="0-Ukn4ihmsJS-yES5DAv-55" target="0-Ukn4ihmsJS-yES5DAv-82">
          <mxGeometry relative="1" as="geometry">
            <Array as="points">
              <mxPoint x="940" y="950" />
            </Array>
          </mxGeometry>
        </mxCell>
        <mxCell id="0-Ukn4ihmsJS-yES5DAv-102" value="Pay Bills" style="edgeLabel;html=1;align=center;verticalAlign=middle;resizable=0;points=[];" vertex="1" connectable="0" parent="0-Ukn4ihmsJS-yES5DAv-99">
          <mxGeometry x="0.1895" y="1" relative="1" as="geometry">
            <mxPoint as="offset" />
          </mxGeometry>
        </mxCell>
        <mxCell id="0-Ukn4ihmsJS-yES5DAv-55" value="" style="html=1;points=[];perimeter=orthogonalPerimeter;outlineConnect=0;targetShapes=umlLifeline;portConstraint=eastwest;newEdgeStyle={&quot;edgeStyle&quot;:&quot;elbowEdgeStyle&quot;,&quot;elbow&quot;:&quot;vertical&quot;,&quot;curved&quot;:0,&quot;rounded&quot;:0};" vertex="1" parent="1">
          <mxGeometry x="-70" y="120" width="10" height="890" as="geometry" />
        </mxCell>
        <mxCell id="0-Ukn4ihmsJS-yES5DAv-60" value="Electronic Medical Record" style="shape=umlLifeline;perimeter=lifelinePerimeter;whiteSpace=wrap;html=1;container=0;dropTarget=0;collapsible=0;recursiveResize=0;outlineConnect=0;portConstraint=eastwest;newEdgeStyle={&quot;edgeStyle&quot;:&quot;elbowEdgeStyle&quot;,&quot;elbow&quot;:&quot;vertical&quot;,&quot;curved&quot;:0,&quot;rounded&quot;:0};" vertex="1" parent="1">
          <mxGeometry x="570" y="40" width="100" height="1140" as="geometry" />
        </mxCell>
        <mxCell id="0-Ukn4ihmsJS-yES5DAv-61" value="" style="html=1;points=[];perimeter=orthogonalPerimeter;outlineConnect=0;targetShapes=umlLifeline;portConstraint=eastwest;newEdgeStyle={&quot;edgeStyle&quot;:&quot;elbowEdgeStyle&quot;,&quot;elbow&quot;:&quot;vertical&quot;,&quot;curved&quot;:0,&quot;rounded&quot;:0};" vertex="1" parent="0-Ukn4ihmsJS-yES5DAv-60">
          <mxGeometry x="45" y="360" width="10" height="530" as="geometry" />
        </mxCell>
        <mxCell id="0-Ukn4ihmsJS-yES5DAv-62" style="edgeStyle=elbowEdgeStyle;rounded=0;orthogonalLoop=1;jettySize=auto;html=1;elbow=vertical;curved=0;" edge="1" parent="1">
          <mxGeometry relative="1" as="geometry">
            <mxPoint x="445" y="510.33333333333337" as="sourcePoint" />
            <mxPoint x="615" y="510.33333333333337" as="targetPoint" />
          </mxGeometry>
        </mxCell>
        <mxCell id="0-Ukn4ihmsJS-yES5DAv-63" value="Check Medicall History" style="edgeLabel;html=1;align=center;verticalAlign=middle;resizable=0;points=[];" vertex="1" connectable="0" parent="0-Ukn4ihmsJS-yES5DAv-62">
          <mxGeometry x="-0.1137" y="-1" relative="1" as="geometry">
            <mxPoint as="offset" />
          </mxGeometry>
        </mxCell>
        <mxCell id="0-Ukn4ihmsJS-yES5DAv-66" value="alt" style="shape=umlFrame;whiteSpace=wrap;html=1;pointerEvents=0;" vertex="1" parent="1">
          <mxGeometry x="-200" y="520" width="1220" height="360" as="geometry" />
        </mxCell>
        <mxCell id="0-Ukn4ihmsJS-yES5DAv-67" value="" style="endArrow=none;dashed=1;html=1;dashPattern=12 12;strokeWidth=1;rounded=0;exitX=0.002;exitY=0.595;exitDx=0;exitDy=0;exitPerimeter=0;" edge="1" parent="1">
          <mxGeometry width="50" height="50" relative="1" as="geometry">
            <mxPoint x="-198.27999999999997" y="632" as="sourcePoint" />
            <mxPoint x="660" y="633" as="targetPoint" />
          </mxGeometry>
        </mxCell>
        <mxCell id="0-Ukn4ihmsJS-yES5DAv-68" value="else" style="text;html=1;align=center;verticalAlign=middle;resizable=0;points=[];autosize=1;strokeColor=none;fillColor=none;" vertex="1" parent="1">
          <mxGeometry x="-195" y="635" width="50" height="30" as="geometry" />
        </mxCell>
        <mxCell id="0-Ukn4ihmsJS-yES5DAv-69" value="If results ok" style="text;html=1;align=center;verticalAlign=middle;resizable=0;points=[];autosize=1;strokeColor=none;fillColor=none;" vertex="1" parent="1">
          <mxGeometry x="-200" y="555" width="80" height="30" as="geometry" />
        </mxCell>
        <mxCell id="0-Ukn4ihmsJS-yES5DAv-70" style="edgeStyle=elbowEdgeStyle;rounded=0;orthogonalLoop=1;jettySize=auto;html=1;elbow=vertical;curved=0;dashed=1;dashPattern=8 8;" edge="1" parent="1">
          <mxGeometry relative="1" as="geometry">
            <mxPoint x="615" y="556.3333333333335" as="sourcePoint" />
            <mxPoint x="445" y="556.3333333333335" as="targetPoint" />
          </mxGeometry>
        </mxCell>
        <mxCell id="0-Ukn4ihmsJS-yES5DAv-72" value="Medical Results ok" style="edgeLabel;html=1;align=center;verticalAlign=middle;resizable=0;points=[];" vertex="1" connectable="0" parent="0-Ukn4ihmsJS-yES5DAv-70">
          <mxGeometry x="0.1311" y="-1" relative="1" as="geometry">
            <mxPoint as="offset" />
          </mxGeometry>
        </mxCell>
        <mxCell id="0-Ukn4ihmsJS-yES5DAv-73" style="edgeStyle=elbowEdgeStyle;rounded=0;orthogonalLoop=1;jettySize=auto;html=1;elbow=vertical;curved=0;dashed=1;dashPattern=12 12;" edge="1" parent="1">
          <mxGeometry relative="1" as="geometry">
            <mxPoint x="435" y="570.3333333333334" as="sourcePoint" />
            <mxPoint x="-60" y="570.3333333333334" as="targetPoint" />
          </mxGeometry>
        </mxCell>
        <mxCell id="0-Ukn4ihmsJS-yES5DAv-74" value="No Prescription" style="edgeLabel;html=1;align=center;verticalAlign=middle;resizable=0;points=[];" vertex="1" connectable="0" parent="0-Ukn4ihmsJS-yES5DAv-73">
          <mxGeometry x="-0.0357" y="-1" relative="1" as="geometry">
            <mxPoint as="offset" />
          </mxGeometry>
        </mxCell>
        <mxCell id="0-Ukn4ihmsJS-yES5DAv-75" style="edgeStyle=elbowEdgeStyle;rounded=0;orthogonalLoop=1;jettySize=auto;html=1;elbow=vertical;curved=0;dashed=1;dashPattern=8 8;" edge="1" parent="1">
          <mxGeometry relative="1" as="geometry">
            <mxPoint x="615" y="660.3333333333335" as="sourcePoint" />
            <mxPoint x="445" y="660.3333333333335" as="targetPoint" />
          </mxGeometry>
        </mxCell>
        <mxCell id="0-Ukn4ihmsJS-yES5DAv-76" value="Medical Results not Ok" style="edgeLabel;html=1;align=center;verticalAlign=middle;resizable=0;points=[];" vertex="1" connectable="0" parent="0-Ukn4ihmsJS-yES5DAv-75">
          <mxGeometry x="0.1902" y="-1" relative="1" as="geometry">
            <mxPoint as="offset" />
          </mxGeometry>
        </mxCell>
        <mxCell id="0-Ukn4ihmsJS-yES5DAv-77" value="Prescription" style="shape=umlLifeline;perimeter=lifelinePerimeter;whiteSpace=wrap;html=1;container=0;dropTarget=0;collapsible=0;recursiveResize=0;outlineConnect=0;portConstraint=eastwest;newEdgeStyle={&quot;edgeStyle&quot;:&quot;elbowEdgeStyle&quot;,&quot;elbow&quot;:&quot;vertical&quot;,&quot;curved&quot;:0,&quot;rounded&quot;:0};" vertex="1" parent="1">
          <mxGeometry x="760" y="40" width="100" height="1140" as="geometry" />
        </mxCell>
        <mxCell id="0-Ukn4ihmsJS-yES5DAv-78" value="" style="html=1;points=[];perimeter=orthogonalPerimeter;outlineConnect=0;targetShapes=umlLifeline;portConstraint=eastwest;newEdgeStyle={&quot;edgeStyle&quot;:&quot;elbowEdgeStyle&quot;,&quot;elbow&quot;:&quot;vertical&quot;,&quot;curved&quot;:0,&quot;rounded&quot;:0};" vertex="1" parent="0-Ukn4ihmsJS-yES5DAv-77">
          <mxGeometry x="45" y="608" width="10" height="272" as="geometry" />
        </mxCell>
        <mxCell id="0-Ukn4ihmsJS-yES5DAv-79" style="edgeStyle=elbowEdgeStyle;rounded=0;orthogonalLoop=1;jettySize=auto;html=1;elbow=vertical;curved=0;" edge="1" parent="1">
          <mxGeometry relative="1" as="geometry">
            <mxPoint x="445" y="701.6666666666667" as="sourcePoint" />
            <mxPoint x="805" y="701.6666666666667" as="targetPoint" />
          </mxGeometry>
        </mxCell>
        <mxCell id="0-Ukn4ihmsJS-yES5DAv-80" value="Write Prescription" style="edgeLabel;html=1;align=center;verticalAlign=middle;resizable=0;points=[];" vertex="1" connectable="0" parent="0-Ukn4ihmsJS-yES5DAv-79">
          <mxGeometry x="-0.366" relative="1" as="geometry">
            <mxPoint as="offset" />
          </mxGeometry>
        </mxCell>
        <mxCell id="0-Ukn4ihmsJS-yES5DAv-81" value="Bills" style="shape=umlLifeline;perimeter=lifelinePerimeter;whiteSpace=wrap;html=1;container=0;dropTarget=0;collapsible=0;recursiveResize=0;outlineConnect=0;portConstraint=eastwest;newEdgeStyle={&quot;edgeStyle&quot;:&quot;elbowEdgeStyle&quot;,&quot;elbow&quot;:&quot;vertical&quot;,&quot;curved&quot;:0,&quot;rounded&quot;:0};" vertex="1" parent="1">
          <mxGeometry x="940" y="40" width="100" height="1140" as="geometry" />
        </mxCell>
        <mxCell id="0-Ukn4ihmsJS-yES5DAv-86" style="edgeStyle=elbowEdgeStyle;rounded=0;orthogonalLoop=1;jettySize=auto;html=1;elbow=vertical;curved=0;" edge="1" parent="0-Ukn4ihmsJS-yES5DAv-81" source="0-Ukn4ihmsJS-yES5DAv-82" target="0-Ukn4ihmsJS-yES5DAv-81">
          <mxGeometry relative="1" as="geometry" />
        </mxCell>
        <mxCell id="0-Ukn4ihmsJS-yES5DAv-82" value="" style="html=1;points=[];perimeter=orthogonalPerimeter;outlineConnect=0;targetShapes=umlLifeline;portConstraint=eastwest;newEdgeStyle={&quot;edgeStyle&quot;:&quot;elbowEdgeStyle&quot;,&quot;elbow&quot;:&quot;vertical&quot;,&quot;curved&quot;:0,&quot;rounded&quot;:0};" vertex="1" parent="0-Ukn4ihmsJS-yES5DAv-81">
          <mxGeometry x="45" y="720" width="10" height="260" as="geometry" />
        </mxCell>
        <mxCell id="0-Ukn4ihmsJS-yES5DAv-87" style="edgeStyle=elbowEdgeStyle;rounded=0;orthogonalLoop=1;jettySize=auto;html=1;elbow=vertical;curved=0;dashed=1;dashPattern=12 12;" edge="1" parent="1">
          <mxGeometry relative="1" as="geometry">
            <mxPoint x="805" y="740.6666666666667" as="sourcePoint" />
            <mxPoint x="-60" y="740.6666666666667" as="targetPoint" />
          </mxGeometry>
        </mxCell>
        <mxCell id="0-Ukn4ihmsJS-yES5DAv-88" value="Review Prescription" style="edgeLabel;html=1;align=center;verticalAlign=middle;resizable=0;points=[];" vertex="1" connectable="0" parent="0-Ukn4ihmsJS-yES5DAv-87">
          <mxGeometry x="0.0982" y="-2" relative="1" as="geometry">
            <mxPoint as="offset" />
          </mxGeometry>
        </mxCell>
        <mxCell id="0-Ukn4ihmsJS-yES5DAv-92" style="edgeStyle=elbowEdgeStyle;rounded=0;orthogonalLoop=1;jettySize=auto;html=1;elbow=vertical;curved=0;" edge="1" parent="1" source="aM9ryv3xv72pqoxQDRHE-6" target="0-Ukn4ihmsJS-yES5DAv-61">
          <mxGeometry relative="1" as="geometry">
            <Array as="points">
              <mxPoint x="530" y="790" />
            </Array>
          </mxGeometry>
        </mxCell>
        <mxCell id="0-Ukn4ihmsJS-yES5DAv-94" value="Edit Medical Record" style="edgeLabel;html=1;align=center;verticalAlign=middle;resizable=0;points=[];" vertex="1" connectable="0" parent="0-Ukn4ihmsJS-yES5DAv-92">
          <mxGeometry x="-0.2157" y="2" relative="1" as="geometry">
            <mxPoint as="offset" />
          </mxGeometry>
        </mxCell>
        <mxCell id="0-Ukn4ihmsJS-yES5DAv-98" value="Confirm Appointment Time" style="text;html=1;align=center;verticalAlign=middle;resizable=0;points=[];autosize=1;strokeColor=none;fillColor=none;strokeWidth=1;" vertex="1" parent="1">
          <mxGeometry x="-50" y="165" width="160" height="30" as="geometry" />
        </mxCell>
        <mxCell id="0-Ukn4ihmsJS-yES5DAv-100" style="edgeStyle=elbowEdgeStyle;rounded=0;orthogonalLoop=1;jettySize=auto;html=1;elbow=vertical;curved=0;" edge="1" parent="1" source="0-Ukn4ihmsJS-yES5DAv-78" target="0-Ukn4ihmsJS-yES5DAv-81">
          <mxGeometry relative="1" as="geometry">
            <Array as="points">
              <mxPoint x="920" y="820" />
            </Array>
          </mxGeometry>
        </mxCell>
        <mxCell id="0-Ukn4ihmsJS-yES5DAv-101" value="Add Medicine" style="edgeLabel;html=1;align=center;verticalAlign=middle;resizable=0;points=[];" vertex="1" connectable="0" parent="0-Ukn4ihmsJS-yES5DAv-100">
          <mxGeometry x="-0.276" relative="1" as="geometry">
            <mxPoint x="29" y="-9" as="offset" />
          </mxGeometry>
        </mxCell>
      </root>
    </mxGraphModel>
  </diagram>
</mxfile>
